<mxfile host="app.diagrams.net" modified="2022-11-01T12:34:34.257Z" agent="5.0 (Windows NT 10.0; Win64; x64) AppleWebKit/537.36 (KHTML, like Gecko) Chrome/107.0.0.0 Safari/537.36" etag="c-ty8VnRrO8AqQFv9rma" version="20.5.1" type="github">
  <diagram id="wgHW7e4EUa4GgYDRs7Ng" name="Page-1">
    <mxGraphModel dx="6555" dy="4743" grid="1" gridSize="10" guides="1" tooltips="1" connect="1" arrows="1" fold="1" page="1" pageScale="1" pageWidth="700" pageHeight="1000" math="0" shadow="0">
      <root>
        <mxCell id="0" />
        <mxCell id="1" parent="0" />
        <mxCell id="mvNzvA__HQaBql2vhhs9-19" value="" style="aspect=fixed;perimeter=ellipsePerimeter;html=1;align=center;shadow=0;dashed=0;spacingTop=3;image;image=img/lib/active_directory/internet_cloud.svg;fontSize=14;" vertex="1" parent="1">
          <mxGeometry x="-1340" y="-1526" width="910" height="573.3" as="geometry" />
        </mxCell>
        <mxCell id="mvNzvA__HQaBql2vhhs9-1" value="" style="verticalLabelPosition=bottom;html=1;verticalAlign=top;strokeWidth=1;align=center;outlineConnect=0;dashed=0;outlineConnect=0;shape=mxgraph.aws3d.application;fillColor=#4286c5;strokeColor=#57A2D8;aspect=fixed;" vertex="1" parent="1">
          <mxGeometry x="-1080" y="-1437.6100000000001" width="110" height="122.06" as="geometry" />
        </mxCell>
        <mxCell id="mvNzvA__HQaBql2vhhs9-3" value="" style="verticalLabelPosition=bottom;html=1;verticalAlign=top;strokeWidth=1;align=center;outlineConnect=0;dashed=0;outlineConnect=0;shape=mxgraph.aws3d.application;fillColor=#4286c5;strokeColor=#57A2D8;aspect=fixed;" vertex="1" parent="1">
          <mxGeometry x="-831" y="-1437.6100000000001" width="110" height="122.06" as="geometry" />
        </mxCell>
        <mxCell id="mvNzvA__HQaBql2vhhs9-5" value="Project Creator" style="text;strokeColor=none;fillColor=none;html=1;fontSize=24;fontStyle=1;verticalAlign=middle;align=center;" vertex="1" parent="1">
          <mxGeometry x="-1080" y="-1304.35" width="100" height="40" as="geometry" />
        </mxCell>
        <mxCell id="mvNzvA__HQaBql2vhhs9-6" value="Library" style="text;strokeColor=none;fillColor=none;html=1;fontSize=24;fontStyle=1;verticalAlign=middle;align=center;" vertex="1" parent="1">
          <mxGeometry x="-821" y="-1304.35" width="100" height="40" as="geometry" />
        </mxCell>
        <mxCell id="mvNzvA__HQaBql2vhhs9-8" value="&lt;ul&gt;&lt;li&gt;Create Sewing Projects&lt;/li&gt;&lt;li&gt;Share with anyone&lt;/li&gt;&lt;/ul&gt;" style="text;strokeColor=none;fillColor=none;html=1;whiteSpace=wrap;verticalAlign=middle;overflow=hidden;fontSize=14;" vertex="1" parent="1">
          <mxGeometry x="-1151" y="-1264.35" width="190" height="50" as="geometry" />
        </mxCell>
        <mxCell id="mvNzvA__HQaBql2vhhs9-10" value="&lt;ul&gt;&lt;li&gt;Purchase Embroidery Designs&lt;/li&gt;&lt;li&gt;Free Designs&lt;/li&gt;&lt;/ul&gt;" style="text;strokeColor=none;fillColor=none;html=1;whiteSpace=wrap;verticalAlign=middle;overflow=hidden;fontSize=14;" vertex="1" parent="1">
          <mxGeometry x="-891" y="-1264.35" width="240" height="50" as="geometry" />
        </mxCell>
        <mxCell id="mvNzvA__HQaBql2vhhs9-11" value="" style="outlineConnect=0;dashed=0;verticalLabelPosition=bottom;verticalAlign=top;align=center;html=1;shape=mxgraph.aws3.vault;fillColor=#E05243;gradientColor=none;fontSize=14;" vertex="1" parent="1">
          <mxGeometry x="-1080" y="-1192.35" width="109" height="100" as="geometry" />
        </mxCell>
        <mxCell id="mvNzvA__HQaBql2vhhs9-12" value="Vault" style="text;strokeColor=none;fillColor=none;html=1;fontSize=24;fontStyle=1;verticalAlign=middle;align=center;" vertex="1" parent="1">
          <mxGeometry x="-1075" y="-1082.35" width="100" height="40" as="geometry" />
        </mxCell>
        <mxCell id="mvNzvA__HQaBql2vhhs9-13" value="" style="html=1;verticalLabelPosition=bottom;align=center;labelBackgroundColor=#ffffff;verticalAlign=top;strokeWidth=2;strokeColor=#0080F0;shadow=0;dashed=0;shape=mxgraph.ios7.icons.help;fontSize=14;" vertex="1" parent="1">
          <mxGeometry x="-826" y="-1182.35" width="100" height="80" as="geometry" />
        </mxCell>
        <mxCell id="mvNzvA__HQaBql2vhhs9-14" value="Help" style="text;strokeColor=none;fillColor=none;html=1;fontSize=24;fontStyle=1;verticalAlign=middle;align=center;" vertex="1" parent="1">
          <mxGeometry x="-821" y="-1082.35" width="100" height="40" as="geometry" />
        </mxCell>
        <mxCell id="mvNzvA__HQaBql2vhhs9-15" value="(https://projectcreator.mysewnet.com)" style="text;html=1;strokeColor=none;fillColor=none;align=center;verticalAlign=middle;whiteSpace=wrap;rounded=0;fontSize=14;fontStyle=1" vertex="1" parent="1">
          <mxGeometry x="-1150" y="-1274.35" width="240" height="30" as="geometry" />
        </mxCell>
        <mxCell id="mvNzvA__HQaBql2vhhs9-17" value="(https://library.mysewnet.com)" style="text;html=1;strokeColor=none;fillColor=none;align=center;verticalAlign=middle;whiteSpace=wrap;rounded=0;fontSize=14;fontStyle=1" vertex="1" parent="1">
          <mxGeometry x="-881" y="-1274.35" width="240" height="30" as="geometry" />
        </mxCell>
        <mxCell id="mvNzvA__HQaBql2vhhs9-18" value="(https:vault.mysewnet.com)" style="text;html=1;strokeColor=none;fillColor=none;align=center;verticalAlign=middle;whiteSpace=wrap;rounded=0;fontSize=14;fontStyle=1" vertex="1" parent="1">
          <mxGeometry x="-1131" y="-1054.35" width="240" height="30" as="geometry" />
        </mxCell>
        <mxCell id="mvNzvA__HQaBql2vhhs9-25" value="" style="aspect=fixed;perimeter=ellipsePerimeter;html=1;align=center;shadow=0;dashed=0;spacingTop=3;image;image=img/lib/active_directory/internet_cloud.svg;fontSize=14;" vertex="1" parent="1">
          <mxGeometry x="-440" y="-1444.95" width="617.38" height="388.95" as="geometry" />
        </mxCell>
        <mxCell id="mvNzvA__HQaBql2vhhs9-20" value="" style="verticalLabelPosition=bottom;html=1;verticalAlign=top;strokeWidth=1;align=center;outlineConnect=0;dashed=0;outlineConnect=0;shape=mxgraph.aws3d.application;fillColor=#4286c5;strokeColor=#57A2D8;aspect=fixed;" vertex="1" parent="1">
          <mxGeometry x="-160" y="-1437.6100000000001" width="110" height="122.06" as="geometry" />
        </mxCell>
        <mxCell id="mvNzvA__HQaBql2vhhs9-21" value="mySewnet" style="text;strokeColor=none;fillColor=none;html=1;fontSize=24;fontStyle=1;verticalAlign=middle;align=center;" vertex="1" parent="1">
          <mxGeometry x="-150" y="-1304.35" width="100" height="40" as="geometry" />
        </mxCell>
        <mxCell id="mvNzvA__HQaBql2vhhs9-23" value="(https://mysewnet.com)" style="text;html=1;align=center;verticalAlign=middle;resizable=0;points=[];autosize=1;strokeColor=none;fillColor=none;fontSize=14;fontStyle=1" vertex="1" parent="1">
          <mxGeometry x="-190" y="-1274.35" width="180" height="30" as="geometry" />
        </mxCell>
        <mxCell id="mvNzvA__HQaBql2vhhs9-24" value="&lt;ul&gt;&lt;li&gt;mySewnet Subscriptions&lt;/li&gt;&lt;li&gt;Promotion codes&lt;/li&gt;&lt;li&gt;Perpetual Licenses&lt;/li&gt;&lt;li&gt;Renewals&lt;/li&gt;&lt;li&gt;Upgrades&lt;/li&gt;&lt;li&gt;Downgrades&lt;/li&gt;&lt;li&gt;Invoices&lt;/li&gt;&lt;li&gt;Customer Dashboard&lt;/li&gt;&lt;li&gt;Purchases&lt;/li&gt;&lt;li&gt;mySewnet Cloud&lt;/li&gt;&lt;/ul&gt;" style="text;strokeColor=none;fillColor=none;html=1;whiteSpace=wrap;verticalAlign=middle;overflow=hidden;fontSize=14;" vertex="1" parent="1">
          <mxGeometry x="-207.5" y="-1264.35" width="205" height="188.35" as="geometry" />
        </mxCell>
        <mxCell id="mvNzvA__HQaBql2vhhs9-30" value="" style="aspect=fixed;perimeter=ellipsePerimeter;html=1;align=center;shadow=0;dashed=0;spacingTop=3;image;image=img/lib/active_directory/internet_cloud.svg;fontSize=14;" vertex="1" parent="1">
          <mxGeometry x="184" y="-1449.1100000000001" width="566.28" height="356.76" as="geometry" />
        </mxCell>
        <mxCell id="mvNzvA__HQaBql2vhhs9-26" value="" style="verticalLabelPosition=bottom;html=1;verticalAlign=top;strokeWidth=1;align=center;outlineConnect=0;dashed=0;outlineConnect=0;shape=mxgraph.aws3d.application;fillColor=#4286c5;strokeColor=#57A2D8;aspect=fixed;" vertex="1" parent="1">
          <mxGeometry x="410" y="-1426.4099999999999" width="110" height="122.06" as="geometry" />
        </mxCell>
        <mxCell id="mvNzvA__HQaBql2vhhs9-27" value="Recurly" style="text;strokeColor=none;fillColor=none;html=1;fontSize=24;fontStyle=1;verticalAlign=middle;align=center;" vertex="1" parent="1">
          <mxGeometry x="405" y="-1304.35" width="100" height="40" as="geometry" />
        </mxCell>
        <mxCell id="mvNzvA__HQaBql2vhhs9-28" value="(https://mysewnet.recurly.com)" style="text;html=1;align=center;verticalAlign=middle;resizable=0;points=[];autosize=1;strokeColor=none;fillColor=none;fontSize=14;fontStyle=1" vertex="1" parent="1">
          <mxGeometry x="360" y="-1274.35" width="230" height="30" as="geometry" />
        </mxCell>
        <mxCell id="mvNzvA__HQaBql2vhhs9-29" value="&lt;ul&gt;&lt;li&gt;Manage Subscriptions&lt;/li&gt;&lt;li&gt;Manage Coupons&lt;/li&gt;&lt;li&gt;Manage Payments&lt;/li&gt;&lt;li&gt;Manage Invoices&lt;/li&gt;&lt;li&gt;Sales Reports&lt;/li&gt;&lt;li&gt;Emails&lt;/li&gt;&lt;li&gt;&lt;br&gt;&lt;/li&gt;&lt;/ul&gt;" style="text;strokeColor=none;fillColor=none;html=1;whiteSpace=wrap;verticalAlign=middle;overflow=hidden;fontSize=14;" vertex="1" parent="1">
          <mxGeometry x="372.5" y="-1256" width="185" height="120" as="geometry" />
        </mxCell>
        <mxCell id="mvNzvA__HQaBql2vhhs9-36" value="" style="aspect=fixed;perimeter=ellipsePerimeter;html=1;align=center;shadow=0;dashed=0;spacingTop=3;image;image=img/lib/active_directory/internet_cloud.svg;fontSize=14;" vertex="1" parent="1">
          <mxGeometry x="790" y="-1437.6100000000001" width="474.52" height="298.95" as="geometry" />
        </mxCell>
        <mxCell id="mvNzvA__HQaBql2vhhs9-32" value="" style="verticalLabelPosition=bottom;html=1;verticalAlign=top;strokeWidth=1;align=center;outlineConnect=0;dashed=0;outlineConnect=0;shape=mxgraph.aws3d.application;fillColor=#4286c5;strokeColor=#57A2D8;aspect=fixed;" vertex="1" parent="1">
          <mxGeometry x="1000" y="-1426.4099999999999" width="110" height="122.06" as="geometry" />
        </mxCell>
        <mxCell id="mvNzvA__HQaBql2vhhs9-33" value="CyberSource" style="text;strokeColor=none;fillColor=none;html=1;fontSize=24;fontStyle=1;verticalAlign=middle;align=center;" vertex="1" parent="1">
          <mxGeometry x="1005" y="-1304.35" width="100" height="40" as="geometry" />
        </mxCell>
        <mxCell id="mvNzvA__HQaBql2vhhs9-34" value="https://ebc2.cybersource.com/ebc2" style="text;html=1;align=center;verticalAlign=middle;resizable=0;points=[];autosize=1;strokeColor=none;fillColor=none;fontSize=14;fontStyle=1" vertex="1" parent="1">
          <mxGeometry x="930" y="-1274.35" width="260" height="30" as="geometry" />
        </mxCell>
        <mxCell id="mvNzvA__HQaBql2vhhs9-35" value="&lt;ul&gt;&lt;li&gt;Tokenize Payment Methods&lt;/li&gt;&lt;li&gt;Authorize Payments&lt;/li&gt;&lt;li&gt;Collect Payments&lt;/li&gt;&lt;li&gt;Refunds&lt;/li&gt;&lt;li&gt;&lt;br&gt;&lt;/li&gt;&lt;/ul&gt;" style="text;strokeColor=none;fillColor=none;html=1;whiteSpace=wrap;verticalAlign=middle;overflow=hidden;fontSize=14;" vertex="1" parent="1">
          <mxGeometry x="942.5" y="-1264.35" width="225" height="90" as="geometry" />
        </mxCell>
        <mxCell id="mvNzvA__HQaBql2vhhs9-37" value="AWS (Managed by R&amp;amp;D)" style="text;strokeColor=none;fillColor=none;html=1;fontSize=24;fontStyle=1;verticalAlign=middle;align=center;" vertex="1" parent="1">
          <mxGeometry x="-1040" y="-1566" width="301" height="40" as="geometry" />
        </mxCell>
        <mxCell id="mvNzvA__HQaBql2vhhs9-38" value="Azure (Optimizely DXP)" style="text;strokeColor=none;fillColor=none;html=1;fontSize=24;fontStyle=1;verticalAlign=middle;align=center;" vertex="1" parent="1">
          <mxGeometry x="-268" y="-1506" width="290" height="40" as="geometry" />
        </mxCell>
        <mxCell id="mvNzvA__HQaBql2vhhs9-39" value="Recurly Cloud" style="text;strokeColor=none;fillColor=none;html=1;fontSize=24;fontStyle=1;verticalAlign=middle;align=center;" vertex="1" parent="1">
          <mxGeometry x="360" y="-1496" width="180" height="40" as="geometry" />
        </mxCell>
        <mxCell id="mvNzvA__HQaBql2vhhs9-40" value="CyberSource Cloud" style="text;strokeColor=none;fillColor=none;html=1;fontSize=24;fontStyle=1;verticalAlign=middle;align=center;" vertex="1" parent="1">
          <mxGeometry x="925" y="-1496" width="240" height="40" as="geometry" />
        </mxCell>
        <mxCell id="mvNzvA__HQaBql2vhhs9-45" value="" style="aspect=fixed;perimeter=ellipsePerimeter;html=1;align=center;shadow=0;dashed=0;spacingTop=3;image;image=img/lib/active_directory/internet_cloud.svg;fontSize=14;" vertex="1" parent="1">
          <mxGeometry x="782.22" y="-828.4999999999999" width="555.56" height="350" as="geometry" />
        </mxCell>
        <mxCell id="mvNzvA__HQaBql2vhhs9-41" value="" style="verticalLabelPosition=bottom;html=1;verticalAlign=top;strokeWidth=1;align=center;outlineConnect=0;dashed=0;outlineConnect=0;shape=mxgraph.aws3d.application;fillColor=#4286c5;strokeColor=#57A2D8;aspect=fixed;" vertex="1" parent="1">
          <mxGeometry x="1020" y="-778.4999999999999" width="110" height="122.06" as="geometry" />
        </mxCell>
        <mxCell id="mvNzvA__HQaBql2vhhs9-42" value="Elastic Path" style="text;strokeColor=none;fillColor=none;html=1;fontSize=24;fontStyle=1;verticalAlign=middle;align=center;" vertex="1" parent="1">
          <mxGeometry x="1005" y="-656.4399999999999" width="155" height="37.94" as="geometry" />
        </mxCell>
        <mxCell id="mvNzvA__HQaBql2vhhs9-43" value="https://cm01.ep-prod.ep-singer.com/cm/admin" style="text;html=1;align=center;verticalAlign=middle;resizable=0;points=[];autosize=1;strokeColor=none;fillColor=none;fontSize=14;fontStyle=1" vertex="1" parent="1">
          <mxGeometry x="925" y="-628.4999999999999" width="330" height="30" as="geometry" />
        </mxCell>
        <mxCell id="mvNzvA__HQaBql2vhhs9-44" value="&lt;ul&gt;&lt;li&gt;Manage Single Design Purchases&lt;/li&gt;&lt;li&gt;Manage Promo Codes&lt;/li&gt;&lt;li&gt;Manage Perpetual Codes&lt;/li&gt;&lt;li&gt;Integrate with CyberSource&lt;/li&gt;&lt;/ul&gt;" style="text;strokeColor=none;fillColor=none;html=1;whiteSpace=wrap;verticalAlign=middle;overflow=hidden;fontSize=14;" vertex="1" parent="1">
          <mxGeometry x="940" y="-608.4999999999999" width="270" height="100" as="geometry" />
        </mxCell>
        <mxCell id="mvNzvA__HQaBql2vhhs9-46" value="Cloudops AWS" style="text;strokeColor=none;fillColor=none;html=1;fontSize=24;fontStyle=1;verticalAlign=middle;align=center;" vertex="1" parent="1">
          <mxGeometry x="935" y="-860.4999999999999" width="240" height="40" as="geometry" />
        </mxCell>
        <mxCell id="mvNzvA__HQaBql2vhhs9-47" value="" style="aspect=fixed;html=1;points=[];align=center;image;fontSize=12;image=img/lib/azure2/databases/SQL_Database.svg;" vertex="1" parent="1">
          <mxGeometry x="-67" y="-833.3499999999999" width="48" height="64" as="geometry" />
        </mxCell>
        <mxCell id="mvNzvA__HQaBql2vhhs9-48" value="mySewnet DB" style="text;strokeColor=none;fillColor=none;html=1;fontSize=24;fontStyle=1;verticalAlign=middle;align=center;" vertex="1" parent="1">
          <mxGeometry x="-338" y="-771" width="180" height="40" as="geometry" />
        </mxCell>
        <mxCell id="mvNzvA__HQaBql2vhhs9-49" value="&lt;b&gt;10.1.12.60&lt;/b&gt;" style="text;html=1;align=center;verticalAlign=middle;resizable=0;points=[];autosize=1;strokeColor=none;fillColor=none;fontSize=14;" vertex="1" parent="1">
          <mxGeometry x="-293" y="-739" width="90" height="30" as="geometry" />
        </mxCell>
        <mxCell id="mvNzvA__HQaBql2vhhs9-50" value="" style="aspect=fixed;html=1;points=[];align=center;image;fontSize=12;image=img/lib/azure2/databases/SQL_Database.svg;" vertex="1" parent="1">
          <mxGeometry x="140" y="-835" width="48" height="64" as="geometry" />
        </mxCell>
        <mxCell id="mvNzvA__HQaBql2vhhs9-51" value="" style="aspect=fixed;html=1;points=[];align=center;image;fontSize=12;image=img/lib/azure2/databases/SQL_Database.svg;" vertex="1" parent="1">
          <mxGeometry x="360" y="-835" width="48" height="64" as="geometry" />
        </mxCell>
        <mxCell id="mvNzvA__HQaBql2vhhs9-52" value="Pfaff FW Images" style="text;strokeColor=none;fillColor=none;html=1;fontSize=24;fontStyle=1;verticalAlign=middle;align=center;" vertex="1" parent="1">
          <mxGeometry x="99" y="-769" width="180" height="40" as="geometry" />
        </mxCell>
        <mxCell id="mvNzvA__HQaBql2vhhs9-53" value="HV FW Images" style="text;strokeColor=none;fillColor=none;html=1;fontSize=24;fontStyle=1;verticalAlign=middle;align=center;" vertex="1" parent="1">
          <mxGeometry x="-133" y="-771" width="180" height="40" as="geometry" />
        </mxCell>
        <mxCell id="mvNzvA__HQaBql2vhhs9-55" value="&lt;b&gt;10.1.12.60&lt;/b&gt;" style="text;html=1;align=center;verticalAlign=middle;resizable=0;points=[];autosize=1;strokeColor=none;fillColor=none;fontSize=14;" vertex="1" parent="1">
          <mxGeometry x="150" y="-739" width="90" height="30" as="geometry" />
        </mxCell>
        <mxCell id="mvNzvA__HQaBql2vhhs9-56" value="&lt;b&gt;10.1.12.60&lt;/b&gt;" style="text;html=1;align=center;verticalAlign=middle;resizable=0;points=[];autosize=1;strokeColor=none;fillColor=none;fontSize=14;" vertex="1" parent="1">
          <mxGeometry x="-100" y="-743.3499999999999" width="90" height="30" as="geometry" />
        </mxCell>
        <mxCell id="mvNzvA__HQaBql2vhhs9-57" value="" style="image;html=1;image=img/lib/clip_art/computers/iPad_128x128.png;fontSize=14;" vertex="1" parent="1">
          <mxGeometry x="-1088" y="-776.5" width="80" height="80" as="geometry" />
        </mxCell>
        <mxCell id="mvNzvA__HQaBql2vhhs9-58" value="" style="shape=mxgraph.signs.tech.computer;html=1;pointerEvents=1;fillColor=#000000;strokeColor=none;verticalLabelPosition=bottom;verticalAlign=top;align=center;fontSize=14;" vertex="1" parent="1">
          <mxGeometry x="-861" y="-787.5" width="98" height="98" as="geometry" />
        </mxCell>
        <mxCell id="mvNzvA__HQaBql2vhhs9-60" value="" style="shape=image;html=1;verticalAlign=top;verticalLabelPosition=bottom;labelBackgroundColor=#ffffff;imageAspect=0;aspect=fixed;image=https://cdn4.iconfinder.com/data/icons/essential-app-1/16/mobile-phone-smart-screen-128.png;fontSize=14;" vertex="1" parent="1">
          <mxGeometry x="-866" y="-584.5" width="128" height="128" as="geometry" />
        </mxCell>
        <mxCell id="mvNzvA__HQaBql2vhhs9-61" value="" style="verticalLabelPosition=bottom;sketch=0;aspect=fixed;html=1;verticalAlign=top;strokeColor=none;align=center;outlineConnect=0;shape=mxgraph.citrix.laptop_2;fontSize=14;" vertex="1" parent="1">
          <mxGeometry x="-1106" y="-554.5" width="116" height="86.5" as="geometry" />
        </mxCell>
        <mxCell id="mvNzvA__HQaBql2vhhs9-62" value="Tablet" style="text;strokeColor=none;fillColor=none;html=1;fontSize=24;fontStyle=1;verticalAlign=middle;align=center;" vertex="1" parent="1">
          <mxGeometry x="-1098" y="-689.5" width="100" height="40" as="geometry" />
        </mxCell>
        <mxCell id="mvNzvA__HQaBql2vhhs9-63" value="Computer" style="text;strokeColor=none;fillColor=none;html=1;fontSize=24;fontStyle=1;verticalAlign=middle;align=center;" vertex="1" parent="1">
          <mxGeometry x="-876" y="-670.8499999999999" width="125" height="40" as="geometry" />
        </mxCell>
        <mxCell id="mvNzvA__HQaBql2vhhs9-65" value="Laptop" style="text;strokeColor=none;fillColor=none;html=1;fontSize=24;fontStyle=1;verticalAlign=middle;align=center;" vertex="1" parent="1">
          <mxGeometry x="-1088" y="-456.5" width="100" height="40" as="geometry" />
        </mxCell>
        <mxCell id="mvNzvA__HQaBql2vhhs9-66" value="Smart Phone" style="text;strokeColor=none;fillColor=none;html=1;fontSize=24;fontStyle=1;verticalAlign=middle;align=center;" vertex="1" parent="1">
          <mxGeometry x="-876" y="-434.5" width="176" height="40" as="geometry" />
        </mxCell>
        <mxCell id="mvNzvA__HQaBql2vhhs9-67" value="" style="aspect=fixed;html=1;points=[];align=center;image;fontSize=12;image=img/lib/azure2/databases/SQL_Database.svg;" vertex="1" parent="1">
          <mxGeometry x="-272" y="-830.8499999999999" width="48" height="64" as="geometry" />
        </mxCell>
        <mxCell id="mvNzvA__HQaBql2vhhs9-128" style="edgeStyle=orthogonalEdgeStyle;rounded=0;orthogonalLoop=1;jettySize=auto;html=1;entryX=0.763;entryY=0.126;entryDx=0;entryDy=0;entryPerimeter=0;fontSize=14;" edge="1" parent="1" source="mvNzvA__HQaBql2vhhs9-68" target="mvNzvA__HQaBql2vhhs9-77">
          <mxGeometry relative="1" as="geometry">
            <Array as="points">
              <mxPoint x="400" y="-676" />
              <mxPoint x="-10" y="-676" />
              <mxPoint x="-10" y="-647" />
            </Array>
          </mxGeometry>
        </mxCell>
        <mxCell id="mvNzvA__HQaBql2vhhs9-68" value="" style="aspect=fixed;html=1;points=[];align=center;image;fontSize=12;image=img/lib/azure2/databases/SQL_Database.svg;" vertex="1" parent="1">
          <mxGeometry x="366" y="-643.3499999999999" width="48" height="64" as="geometry" />
        </mxCell>
        <mxCell id="mvNzvA__HQaBql2vhhs9-69" value="Dealers DB" style="text;strokeColor=none;fillColor=none;html=1;fontSize=24;fontStyle=1;verticalAlign=middle;align=center;" vertex="1" parent="1">
          <mxGeometry x="307.75" y="-769" width="152.5" height="40" as="geometry" />
        </mxCell>
        <mxCell id="mvNzvA__HQaBql2vhhs9-70" value="Machines DB" style="text;strokeColor=none;fillColor=none;html=1;fontSize=24;fontStyle=1;verticalAlign=middle;align=center;" vertex="1" parent="1">
          <mxGeometry x="307.75" y="-577" width="185" height="40" as="geometry" />
        </mxCell>
        <mxCell id="mvNzvA__HQaBql2vhhs9-71" value="HQDC-SQLINT-1.CD.CORP" style="text;html=1;align=center;verticalAlign=middle;resizable=0;points=[];autosize=1;strokeColor=none;fillColor=none;fontSize=14;fontStyle=1" vertex="1" parent="1">
          <mxGeometry x="290" y="-729" width="200" height="30" as="geometry" />
        </mxCell>
        <mxCell id="mvNzvA__HQaBql2vhhs9-72" value="HQDC-SQLINT-1.CD.CORP" style="text;html=1;align=center;verticalAlign=middle;resizable=0;points=[];autosize=1;strokeColor=none;fillColor=none;fontSize=14;fontStyle=1" vertex="1" parent="1">
          <mxGeometry x="307.75" y="-538.35" width="200" height="30" as="geometry" />
        </mxCell>
        <mxCell id="mvNzvA__HQaBql2vhhs9-73" value="" style="shape=image;html=1;verticalAlign=top;verticalLabelPosition=bottom;labelBackgroundColor=#ffffff;imageAspect=0;aspect=fixed;image=https://cdn1.iconfinder.com/data/icons/icons-for-a-site-1/64/advantage_wallet-128.png;fontSize=14;" vertex="1" parent="1">
          <mxGeometry x="112" y="-661.3499999999999" width="128" height="128" as="geometry" />
        </mxCell>
        <mxCell id="mvNzvA__HQaBql2vhhs9-74" value="JDE" style="text;strokeColor=none;fillColor=none;html=1;fontSize=24;fontStyle=1;verticalAlign=middle;align=center;" vertex="1" parent="1">
          <mxGeometry x="130.38" y="-545" width="100" height="40" as="geometry" />
        </mxCell>
        <mxCell id="mvNzvA__HQaBql2vhhs9-75" value="&lt;ul&gt;&lt;li&gt;Manage Finance&lt;/li&gt;&lt;li&gt;Manage Invoices&lt;/li&gt;&lt;li&gt;Manage Sales&lt;/li&gt;&lt;/ul&gt;" style="text;strokeColor=none;fillColor=none;html=1;whiteSpace=wrap;verticalAlign=middle;overflow=hidden;fontSize=14;" vertex="1" parent="1">
          <mxGeometry x="93" y="-527" width="166" height="80" as="geometry" />
        </mxCell>
        <mxCell id="mvNzvA__HQaBql2vhhs9-76" value="" style="shape=image;html=1;verticalAlign=top;verticalLabelPosition=bottom;labelBackgroundColor=#ffffff;imageAspect=0;aspect=fixed;image=https://cdn1.iconfinder.com/data/icons/nuvola2/48x48/actions/kgpg_identity.png;fontSize=14;" vertex="1" parent="1">
          <mxGeometry x="-299" y="-650" width="103" height="103" as="geometry" />
        </mxCell>
        <mxCell id="mvNzvA__HQaBql2vhhs9-77" value="" style="sketch=0;html=1;dashed=0;whitespace=wrap;fillColor=#2875E2;strokeColor=#ffffff;points=[[0.005,0.63,0],[0.1,0.2,0],[0.9,0.2,0],[0.5,0,0],[0.995,0.63,0],[0.72,0.99,0],[0.5,1,0],[0.28,0.99,0]];verticalLabelPosition=bottom;align=center;verticalAlign=top;shape=mxgraph.kubernetes.icon;prIcon=api;fontSize=14;" vertex="1" parent="1">
          <mxGeometry x="-108" y="-662" width="130" height="120" as="geometry" />
        </mxCell>
        <mxCell id="mvNzvA__HQaBql2vhhs9-78" value="mySewnet API" style="text;strokeColor=none;fillColor=none;html=1;fontSize=24;fontStyle=1;verticalAlign=middle;align=center;" vertex="1" parent="1">
          <mxGeometry x="-90" y="-548.35" width="100" height="40" as="geometry" />
        </mxCell>
        <mxCell id="mvNzvA__HQaBql2vhhs9-79" value="SSO" style="text;strokeColor=none;fillColor=none;html=1;fontSize=24;fontStyle=1;verticalAlign=middle;align=center;" vertex="1" parent="1">
          <mxGeometry x="-299" y="-548.35" width="100" height="40" as="geometry" />
        </mxCell>
        <mxCell id="mvNzvA__HQaBql2vhhs9-80" value="&lt;ul&gt;&lt;li&gt;Create User&lt;/li&gt;&lt;li&gt;Login /Authenticate&lt;/li&gt;&lt;li&gt;Reset Password&lt;/li&gt;&lt;li&gt;Roles&lt;/li&gt;&lt;/ul&gt;" style="text;strokeColor=none;fillColor=none;html=1;whiteSpace=wrap;verticalAlign=middle;overflow=hidden;fontSize=14;" vertex="1" parent="1">
          <mxGeometry x="-340" y="-488.35" width="177.5" height="90" as="geometry" />
        </mxCell>
        <mxCell id="mvNzvA__HQaBql2vhhs9-81" value="&lt;ul&gt;&lt;li&gt;Communicate with Recurly&lt;/li&gt;&lt;li&gt;Communicate with Avalara&lt;/li&gt;&lt;li&gt;Communicate with mySewnet&lt;/li&gt;&lt;li&gt;Communicate with EP&lt;/li&gt;&lt;/ul&gt;" style="text;strokeColor=none;fillColor=none;html=1;whiteSpace=wrap;verticalAlign=middle;overflow=hidden;fontSize=14;" vertex="1" parent="1">
          <mxGeometry x="-150" y="-488.35000000000014" width="238" height="96.35" as="geometry" />
        </mxCell>
        <mxCell id="mvNzvA__HQaBql2vhhs9-85" value="" style="rounded=1;whiteSpace=wrap;html=1;fontSize=14;textOpacity=0;fillColor=none;strokeWidth=4;strokeColor=#d79b00;" vertex="1" parent="1">
          <mxGeometry x="-1210" y="-856" width="600" height="520" as="geometry" />
        </mxCell>
        <mxCell id="mvNzvA__HQaBql2vhhs9-82" value="&lt;b&gt;(http://api.mysewnet.com)&lt;br&gt;/ 10.10.20.131&lt;br&gt;&lt;/b&gt;" style="text;html=1;align=center;verticalAlign=middle;resizable=0;points=[];autosize=1;strokeColor=none;fillColor=none;fontSize=14;" vertex="1" parent="1">
          <mxGeometry x="-131" y="-520.5" width="200" height="50" as="geometry" />
        </mxCell>
        <mxCell id="mvNzvA__HQaBql2vhhs9-83" value="(https://login.mysewnet.com)&lt;br&gt;/ 10.10.20.131" style="text;html=1;align=center;verticalAlign=middle;resizable=0;points=[];autosize=1;strokeColor=none;fillColor=none;fontSize=14;fontStyle=1" vertex="1" parent="1">
          <mxGeometry x="-350" y="-522" width="220" height="50" as="geometry" />
        </mxCell>
        <mxCell id="mvNzvA__HQaBql2vhhs9-88" value="Customers, Dealers, Customer Support, SVP Employees" style="text;strokeColor=none;fillColor=none;html=1;fontSize=24;fontStyle=1;verticalAlign=middle;align=center;strokeWidth=4;" vertex="1" parent="1">
          <mxGeometry x="-1250" y="-326" width="660" height="40" as="geometry" />
        </mxCell>
        <mxCell id="mvNzvA__HQaBql2vhhs9-89" value="SVP Intranet" style="text;strokeColor=none;fillColor=none;html=1;fontSize=24;fontStyle=1;verticalAlign=middle;align=center;strokeWidth=4;" vertex="1" parent="1">
          <mxGeometry x="-96.62" y="-316" width="227" height="40" as="geometry" />
        </mxCell>
        <mxCell id="mvNzvA__HQaBql2vhhs9-99" value="SSO" style="ellipse;whiteSpace=wrap;html=1;strokeWidth=4;fontSize=14;fillColor=none;fontStyle=1" vertex="1" parent="1">
          <mxGeometry x="-490" y="-1616" width="120" height="80" as="geometry" />
        </mxCell>
        <mxCell id="mvNzvA__HQaBql2vhhs9-100" value="" style="line;strokeWidth=4;direction=south;html=1;perimeter=backbonePerimeter;points=[];outlineConnect=0;fontSize=14;fillColor=none;" vertex="1" parent="1">
          <mxGeometry x="171" y="-1536" width="10" height="480" as="geometry" />
        </mxCell>
        <mxCell id="mvNzvA__HQaBql2vhhs9-101" value="" style="line;strokeWidth=4;direction=south;html=1;perimeter=backbonePerimeter;points=[];outlineConnect=0;fontSize=14;fillColor=none;" vertex="1" parent="1">
          <mxGeometry x="-440" y="-1536" width="10" height="960" as="geometry" />
        </mxCell>
        <mxCell id="mvNzvA__HQaBql2vhhs9-102" value="" style="line;strokeWidth=4;html=1;perimeter=backbonePerimeter;points=[];outlineConnect=0;fontSize=14;fillColor=none;" vertex="1" parent="1">
          <mxGeometry x="-437" y="-650" width="140" height="150" as="geometry" />
        </mxCell>
        <mxCell id="mvNzvA__HQaBql2vhhs9-104" value="mySewnet API" style="ellipse;whiteSpace=wrap;html=1;strokeWidth=4;fontSize=14;fillColor=none;fontStyle=1" vertex="1" parent="1">
          <mxGeometry x="116" y="-1616" width="120" height="80" as="geometry" />
        </mxCell>
        <mxCell id="mvNzvA__HQaBql2vhhs9-105" value="" style="line;strokeWidth=4;html=1;perimeter=backbonePerimeter;points=[];outlineConnect=0;fontSize=14;fillColor=none;" vertex="1" parent="1">
          <mxGeometry x="80" y="-1061" width="97" height="10" as="geometry" />
        </mxCell>
        <mxCell id="mvNzvA__HQaBql2vhhs9-106" value="" style="line;strokeWidth=4;direction=south;html=1;perimeter=backbonePerimeter;points=[];outlineConnect=0;fontSize=14;fillColor=none;" vertex="1" parent="1">
          <mxGeometry x="77" y="-1055" width="10" height="439" as="geometry" />
        </mxCell>
        <mxCell id="mvNzvA__HQaBql2vhhs9-107" value="" style="line;strokeWidth=4;html=1;perimeter=backbonePerimeter;points=[];outlineConnect=0;fontSize=14;fillColor=none;" vertex="1" parent="1">
          <mxGeometry x="25" y="-620.5" width="59" height="10" as="geometry" />
        </mxCell>
        <mxCell id="mvNzvA__HQaBql2vhhs9-110" value="" style="endArrow=classic;startArrow=classic;html=1;rounded=0;fontSize=14;" edge="1" parent="1" source="mvNzvA__HQaBql2vhhs9-3" target="mvNzvA__HQaBql2vhhs9-99">
          <mxGeometry width="50" height="50" relative="1" as="geometry">
            <mxPoint x="-640" y="-1456" as="sourcePoint" />
            <mxPoint x="-590" y="-1506" as="targetPoint" />
          </mxGeometry>
        </mxCell>
        <mxCell id="mvNzvA__HQaBql2vhhs9-111" value="" style="endArrow=classic;startArrow=classic;html=1;rounded=0;fontSize=14;entryX=0;entryY=0.5;entryDx=0;entryDy=0;" edge="1" parent="1" source="mvNzvA__HQaBql2vhhs9-1" target="mvNzvA__HQaBql2vhhs9-99">
          <mxGeometry width="50" height="50" relative="1" as="geometry">
            <mxPoint x="-630" y="-1546" as="sourcePoint" />
            <mxPoint x="-580" y="-1596" as="targetPoint" />
          </mxGeometry>
        </mxCell>
        <mxCell id="mvNzvA__HQaBql2vhhs9-112" value="" style="endArrow=classic;startArrow=classic;html=1;rounded=0;fontSize=14;" edge="1" parent="1" source="mvNzvA__HQaBql2vhhs9-20" target="mvNzvA__HQaBql2vhhs9-104">
          <mxGeometry width="50" height="50" relative="1" as="geometry">
            <mxPoint x="40" y="-1466" as="sourcePoint" />
            <mxPoint x="90" y="-1516" as="targetPoint" />
          </mxGeometry>
        </mxCell>
        <mxCell id="mvNzvA__HQaBql2vhhs9-113" value="" style="endArrow=classic;startArrow=classic;html=1;rounded=0;fontSize=14;entryX=1;entryY=1;entryDx=0;entryDy=0;" edge="1" parent="1" source="mvNzvA__HQaBql2vhhs9-26" target="mvNzvA__HQaBql2vhhs9-104">
          <mxGeometry width="50" height="50" relative="1" as="geometry">
            <mxPoint x="250" y="-1446" as="sourcePoint" />
            <mxPoint x="300" y="-1496" as="targetPoint" />
          </mxGeometry>
        </mxCell>
        <mxCell id="mvNzvA__HQaBql2vhhs9-114" value="" style="endArrow=classic;startArrow=classic;html=1;rounded=0;fontSize=14;entryX=0.181;entryY=-0.075;entryDx=0;entryDy=0;entryPerimeter=0;" edge="1" parent="1" source="mvNzvA__HQaBql2vhhs9-105" target="mvNzvA__HQaBql2vhhs9-42">
          <mxGeometry width="50" height="50" relative="1" as="geometry">
            <mxPoint x="740" y="-836" as="sourcePoint" />
            <mxPoint x="790" y="-886" as="targetPoint" />
          </mxGeometry>
        </mxCell>
        <mxCell id="mvNzvA__HQaBql2vhhs9-115" value="" style="endArrow=classic;startArrow=classic;html=1;rounded=0;fontSize=14;" edge="1" parent="1" source="mvNzvA__HQaBql2vhhs9-26" target="mvNzvA__HQaBql2vhhs9-32">
          <mxGeometry width="50" height="50" relative="1" as="geometry">
            <mxPoint x="730" y="-1416" as="sourcePoint" />
            <mxPoint x="780" y="-1466" as="targetPoint" />
          </mxGeometry>
        </mxCell>
        <mxCell id="mvNzvA__HQaBql2vhhs9-116" value="" style="endArrow=classic;startArrow=classic;html=1;rounded=0;fontSize=14;entryX=0.636;entryY=0.741;entryDx=0;entryDy=0;entryPerimeter=0;" edge="1" parent="1" source="mvNzvA__HQaBql2vhhs9-41" target="mvNzvA__HQaBql2vhhs9-32">
          <mxGeometry width="50" height="50" relative="1" as="geometry">
            <mxPoint x="990" y="-996" as="sourcePoint" />
            <mxPoint x="1040" y="-1046" as="targetPoint" />
          </mxGeometry>
        </mxCell>
        <mxCell id="mvNzvA__HQaBql2vhhs9-117" value="" style="endArrow=classic;startArrow=classic;html=1;rounded=0;fontSize=14;entryX=1;entryY=1;entryDx=0;entryDy=0;" edge="1" parent="1" source="mvNzvA__HQaBql2vhhs9-20" target="mvNzvA__HQaBql2vhhs9-99">
          <mxGeometry width="50" height="50" relative="1" as="geometry">
            <mxPoint x="-330" y="-1416" as="sourcePoint" />
            <mxPoint x="-280" y="-1466" as="targetPoint" />
          </mxGeometry>
        </mxCell>
        <mxCell id="mvNzvA__HQaBql2vhhs9-119" value="" style="endArrow=classic;startArrow=classic;html=1;rounded=0;fontSize=14;entryX=0.607;entryY=1.006;entryDx=0;entryDy=0;entryPerimeter=0;" edge="1" parent="1" target="mvNzvA__HQaBql2vhhs9-49">
          <mxGeometry width="50" height="50" relative="1" as="geometry">
            <mxPoint x="-238" y="-646" as="sourcePoint" />
            <mxPoint x="-220" y="-706" as="targetPoint" />
          </mxGeometry>
        </mxCell>
        <mxCell id="mvNzvA__HQaBql2vhhs9-120" value="" style="endArrow=classic;startArrow=classic;html=1;rounded=0;fontSize=14;" edge="1" parent="1" source="mvNzvA__HQaBql2vhhs9-77">
          <mxGeometry width="50" height="50" relative="1" as="geometry">
            <mxPoint x="-43" y="-682.7106781186548" as="sourcePoint" />
            <mxPoint x="-43" y="-716" as="targetPoint" />
          </mxGeometry>
        </mxCell>
        <mxCell id="mvNzvA__HQaBql2vhhs9-121" value="" style="endArrow=classic;startArrow=classic;html=1;rounded=0;fontSize=14;exitX=0.785;exitY=0.181;exitDx=0;exitDy=0;exitPerimeter=0;entryX=0.062;entryY=1.1;entryDx=0;entryDy=0;entryPerimeter=0;" edge="1" parent="1" source="mvNzvA__HQaBql2vhhs9-77" target="mvNzvA__HQaBql2vhhs9-52">
          <mxGeometry width="50" height="50" relative="1" as="geometry">
            <mxPoint x="20" y="-646" as="sourcePoint" />
            <mxPoint x="70" y="-696" as="targetPoint" />
          </mxGeometry>
        </mxCell>
        <mxCell id="mvNzvA__HQaBql2vhhs9-122" value="" style="endArrow=classic;startArrow=classic;html=1;rounded=0;fontSize=14;" edge="1" parent="1">
          <mxGeometry width="50" height="50" relative="1" as="geometry">
            <mxPoint x="10" y="-576" as="sourcePoint" />
            <mxPoint x="130" y="-578.20641025641" as="targetPoint" />
          </mxGeometry>
        </mxCell>
        <mxCell id="mvNzvA__HQaBql2vhhs9-124" value="" style="endArrow=classic;startArrow=classic;html=1;rounded=0;fontSize=14;entryX=0.037;entryY=0.388;entryDx=0;entryDy=0;entryPerimeter=0;" edge="1" parent="1">
          <mxGeometry width="50" height="50" relative="1" as="geometry">
            <mxPoint x="-208" y="-615" as="sourcePoint" />
            <mxPoint x="-101.1899999999996" y="-615.4399999999996" as="targetPoint" />
          </mxGeometry>
        </mxCell>
        <mxCell id="mvNzvA__HQaBql2vhhs9-125" value="" style="endArrow=classic;startArrow=classic;html=1;rounded=0;fontSize=14;exitX=0.9;exitY=0.2;exitDx=0;exitDy=0;exitPerimeter=0;" edge="1" parent="1" source="mvNzvA__HQaBql2vhhs9-77">
          <mxGeometry width="50" height="50" relative="1" as="geometry">
            <mxPoint x="260" y="-666" as="sourcePoint" />
            <mxPoint x="310" y="-716" as="targetPoint" />
          </mxGeometry>
        </mxCell>
        <mxCell id="mvNzvA__HQaBql2vhhs9-129" value="" style="endArrow=classic;startArrow=classic;html=1;rounded=0;fontSize=14;exitX=0.396;exitY=1.049;exitDx=0;exitDy=0;exitPerimeter=0;" edge="1" parent="1" source="mvNzvA__HQaBql2vhhs9-75" target="mvNzvA__HQaBql2vhhs9-44">
          <mxGeometry width="50" height="50" relative="1" as="geometry">
            <mxPoint x="130" y="-416" as="sourcePoint" />
            <mxPoint x="1080" y="-426" as="targetPoint" />
            <Array as="points">
              <mxPoint x="160" y="-376" />
              <mxPoint x="1080" y="-376" />
            </Array>
          </mxGeometry>
        </mxCell>
        <mxCell id="mvNzvA__HQaBql2vhhs9-130" value="" style="endArrow=classic;startArrow=classic;html=1;rounded=0;fontSize=14;entryX=0.165;entryY=1.023;entryDx=0;entryDy=0;entryPerimeter=0;" edge="1" parent="1" target="mvNzvA__HQaBql2vhhs9-24">
          <mxGeometry width="50" height="50" relative="1" as="geometry">
            <mxPoint x="-660" y="-856" as="sourcePoint" />
            <mxPoint x="-610" y="-906" as="targetPoint" />
          </mxGeometry>
        </mxCell>
        <mxCell id="mvNzvA__HQaBql2vhhs9-131" value="" style="endArrow=classic;startArrow=classic;html=1;rounded=0;fontSize=14;" edge="1" parent="1" target="mvNzvA__HQaBql2vhhs9-101">
          <mxGeometry width="50" height="50" relative="1" as="geometry">
            <mxPoint x="-610" y="-696" as="sourcePoint" />
            <mxPoint x="-560" y="-746" as="targetPoint" />
          </mxGeometry>
        </mxCell>
        <mxCell id="mvNzvA__HQaBql2vhhs9-132" value="" style="rounded=1;whiteSpace=wrap;html=1;fontSize=14;textOpacity=0;fillColor=none;strokeWidth=4;strokeColor=#d79b00;" vertex="1" parent="1">
          <mxGeometry x="-395.5" y="-862" width="900" height="520" as="geometry" />
        </mxCell>
        <mxCell id="mvNzvA__HQaBql2vhhs9-134" value="" style="endArrow=classic;startArrow=classic;html=1;rounded=0;fontSize=14;" edge="1" parent="1" source="mvNzvA__HQaBql2vhhs9-26" target="mvNzvA__HQaBql2vhhs9-20">
          <mxGeometry width="50" height="50" relative="1" as="geometry">
            <mxPoint x="258.304347826087" y="-1696" as="sourcePoint" />
            <mxPoint x="320" y="-1696" as="targetPoint" />
          </mxGeometry>
        </mxCell>
        <mxCell id="mvNzvA__HQaBql2vhhs9-135" value="" style="endArrow=classic;startArrow=classic;html=1;rounded=0;fontSize=14;exitX=1.012;exitY=0.151;exitDx=0;exitDy=0;exitPerimeter=0;" edge="1" parent="1" source="mvNzvA__HQaBql2vhhs9-24" target="mvNzvA__HQaBql2vhhs9-41">
          <mxGeometry width="50" height="50" relative="1" as="geometry">
            <mxPoint x="460" y="-996" as="sourcePoint" />
            <mxPoint x="510" y="-1046" as="targetPoint" />
          </mxGeometry>
        </mxCell>
        <mxCell id="mvNzvA__HQaBql2vhhs9-136" value="" style="endArrow=classic;startArrow=classic;html=1;rounded=0;fontSize=14;entryX=0.5;entryY=1;entryDx=0;entryDy=0;" edge="1" parent="1" target="mvNzvA__HQaBql2vhhs9-24">
          <mxGeometry width="50" height="50" relative="1" as="geometry">
            <mxPoint x="-1030" y="-1016" as="sourcePoint" />
            <mxPoint x="-610" y="-976" as="targetPoint" />
            <Array as="points">
              <mxPoint x="-1030" y="-966" />
              <mxPoint x="-940" y="-966" />
              <mxPoint x="-105" y="-966" />
            </Array>
          </mxGeometry>
        </mxCell>
        <mxCell id="mvNzvA__HQaBql2vhhs9-137" value="" style="rounded=1;whiteSpace=wrap;html=1;fontSize=14;textOpacity=0;fillColor=none;strokeWidth=4;strokeColor=#d79b00;" vertex="1" parent="1">
          <mxGeometry x="-1390" y="-1824.35" width="2770" height="1608.35" as="geometry" />
        </mxCell>
        <mxCell id="mvNzvA__HQaBql2vhhs9-138" value="mySewnet Ecosystem" style="text;strokeColor=none;fillColor=none;html=1;fontSize=54;fontStyle=1;verticalAlign=middle;align=center;strokeWidth=4;" vertex="1" parent="1">
          <mxGeometry x="-380" y="-1756" width="650" height="80" as="geometry" />
        </mxCell>
      </root>
    </mxGraphModel>
  </diagram>
</mxfile>
